<svg width="34" height="34" viewBox="0 0 34 34" fill="none" xmlns="http://www.w3.org/2000/svg">
<path d="M13.9588 21.0001V12.2728H17.0696C17.7486 12.2728 18.3111 12.3964 18.7571 12.6436C19.2031 12.8907 19.5369 13.2288 19.7585 13.6578C19.9801 14.0839 20.0909 14.564 20.0909 15.0981C20.0909 15.635 19.9787 16.118 19.7543 16.547C19.5327 16.9731 19.1974 17.3112 18.7486 17.5612C18.3026 17.8083 17.7415 17.9319 17.0653 17.9319H14.9261V16.8154H16.946C17.375 16.8154 17.723 16.7416 17.9901 16.5938C18.2571 16.4433 18.4531 16.2387 18.5781 15.9802C18.7031 15.7217 18.7656 15.4276 18.7656 15.0981C18.7656 14.7686 18.7031 14.4759 18.5781 14.2203C18.4531 13.9646 18.2557 13.7643 17.9858 13.6194C17.7188 13.4745 17.3665 13.4021 16.929 13.4021H15.2756V21.0001H13.9588Z" fill="#020202"/>
<rect x="0.707107" y="17.0001" width="23" height="23" transform="rotate(-45 0.707107 17.0001)" stroke="#020202" stroke-dasharray="3 3"/>
</svg>
