<svg width="24" height="24" viewBox="0 0 24 24" fill="none" xmlns="http://www.w3.org/2000/svg">
<rect x="0.5" y="0.5" width="23" height="23" stroke="#020202"/>
<path d="M9.00852 16.8466V15.892L11.9616 12.8324C12.277 12.5 12.5369 12.2088 12.7415 11.9588C12.9489 11.706 13.1037 11.4659 13.206 11.2386C13.3082 11.0114 13.3594 10.7699 13.3594 10.5142C13.3594 10.2244 13.2912 9.97443 13.1548 9.7642C13.0185 9.55114 12.8324 9.38778 12.5966 9.27415C12.3608 9.15767 12.0952 9.09943 11.7997 9.09943C11.4872 9.09943 11.2145 9.16335 10.9815 9.29119C10.7486 9.41903 10.5696 9.59943 10.4446 9.83239C10.3196 10.0653 10.2571 10.3381 10.2571 10.6506H9C9 10.1193 9.12216 9.65483 9.36648 9.2571C9.6108 8.85938 9.94602 8.55114 10.3722 8.33239C10.7983 8.1108 11.2827 8 11.8253 8C12.3736 8 12.8565 8.10938 13.2741 8.32812C13.6946 8.54403 14.0227 8.83949 14.2585 9.21449C14.4943 9.58665 14.6122 10.0071 14.6122 10.4759C14.6122 10.7997 14.5511 11.1165 14.429 11.4261C14.3097 11.7358 14.1009 12.081 13.8026 12.4616C13.5043 12.8395 13.0895 13.2983 12.5582 13.8381L10.8239 15.6534V15.7173H14.7528V16.8466H9.00852Z" fill="#020202"/>
</svg>
