<svg width="24" height="25" viewBox="0 0 24 25" fill="none" xmlns="http://www.w3.org/2000/svg">
<path d="M9.00852 17.8171V16.8626L11.9616 13.8029C12.277 13.4706 12.5369 13.1794 12.7415 12.9294C12.9489 12.6765 13.1037 12.4365 13.206 12.2092C13.3082 11.9819 13.3594 11.7404 13.3594 11.4848C13.3594 11.195 13.2912 10.945 13.1548 10.7348C13.0185 10.5217 12.8324 10.3583 12.5966 10.2447C12.3608 10.1282 12.0952 10.07 11.7997 10.07C11.4872 10.07 11.2145 10.1339 10.9815 10.2617C10.7486 10.3896 10.5696 10.57 10.4446 10.8029C10.3196 11.0359 10.2571 11.3086 10.2571 11.6211H9C9 11.0899 9.12216 10.6254 9.36648 10.2277C9.6108 9.82993 9.94602 9.52169 10.3722 9.30294C10.7983 9.08135 11.2827 8.97055 11.8253 8.97055C12.3736 8.97055 12.8565 9.07993 13.2741 9.29868C13.6946 9.51458 14.0227 9.81004 14.2585 10.185C14.4943 10.5572 14.6122 10.9777 14.6122 11.4464C14.6122 11.7703 14.5511 12.087 14.429 12.3967C14.3097 12.7063 14.1009 13.0515 13.8026 13.4322C13.5043 13.81 13.0895 14.2688 12.5582 14.8086L10.8239 16.624V16.6879H14.7528V17.8171H9.00852Z" fill="#020202"/>
<circle cx="12" cy="12.9706" r="11.5" stroke="#020202"/>
</svg>
